# xmcd
#
# Track frame offsets:
#	150
#	42535
#	86702
#	112037
#	164212
#	206665
#
# Disc length: 3328 seconds
#
# Revision: 0
# Processed by: cddbd v1.5.2PL0 Copyright (c) Steve Scherf et al.
# Submitted via: EasyCDDAExtractor 11.5.3.1
#
DISCID=590cfe06
DTITLE=Miles Davis - Kind Of Blue
DYEAR=1959
DGENRE=Blues
TTITLE0=So What
TTITLE1=Freddie Freeloader
TTITLE2=Blue In Green
TTITLE3=All Blues
TTITLE4=Flamenco Sketches
TTITLE5=Flamenco Sketches (Alternate Take)
EXTD=
EXTT0=
EXTT1=
EXTT2=
EXTT3=
EXTT4=
EXTT5=
PLAYORDER=
